<svg xmlns="http://www.w3.org/2000/svg" xmlns:xlink="http://www.w3.org/1999/xlink" width="500" zoomAndPan="magnify" viewBox="0 0 375 374.999991" height="500" preserveAspectRatio="xMidYMid meet" version="1.0"><defs><clipPath id="7f2091f489"><path d="M 1 2.0625 L 374 2.0625 L 374 373 L 1 373 Z M 1 2.0625 " clip-rule="nonzero"/></clipPath><clipPath id="b6bba47a40"><path d="M 0.199219 0.0625 L 372.441406 0.0625 L 372.441406 370.71875 L 0.199219 370.71875 Z M 0.199219 0.0625 " clip-rule="nonzero"/></clipPath><clipPath id="d8437856c6"><rect x="0" width="373" y="0" height="371"/></clipPath></defs><g clip-path="url(#7f2091f489)"><g transform="matrix(1, 0, 0, 1, 1, 2)"><g clip-path="url(#d8437856c6)"><g clip-path="url(#b6bba47a40)"><path fill="#4caf50" d="M 188.050781 0.0625 C 152.175781 0.0625 120.234375 8.667969 92.234375 26.023438 C 64.234375 43.230469 42.355469 65.253906 26.460938 92.089844 C 10.5625 118.921875 2.105469 148.675781 0.9375 181.34375 C -0.230469 214.011719 8.082031 246.097656 25.875 277.453125 C 40.898438 303.414062 60.441406 323.976562 84.503906 339.4375 C 108.570312 354.894531 134.238281 364.519531 161.507812 368.457031 C 188.78125 372.25 216.199219 370.0625 243.617188 361.605469 C 271.035156 353.144531 295.828125 338.125 317.558594 316.246094 C 342.0625 291.308594 358.394531 262.429688 366.5625 229.761719 C 374.730469 197.09375 374 164.28125 364.519531 131.613281 C 360.4375 118.484375 353.726562 107.546875 344.394531 98.941406 C 335.058594 90.339844 324.558594 83.921875 312.746094 79.835938 C 300.933594 75.753906 288.683594 73.859375 275.996094 74.441406 C 263.304688 74.878906 251.492188 77.503906 240.554688 82.316406 C 229.617188 87.128906 220.429688 93.839844 212.992188 102.734375 C 205.554688 111.632812 201.03125 122.421875 199.71875 135.113281 C 206.574219 130.152344 214.742188 127.527344 224.222656 127.234375 C 233.699219 126.945312 242.886719 128.988281 251.785156 133.363281 C 260.679688 137.738281 268.117188 144.300781 274.246094 153.195312 C 280.371094 162.09375 283.433594 173.03125 283.433594 186.300781 C 283.433594 209.054688 278.621094 227.867188 269.140625 242.886719 C 259.660156 257.910156 247.703125 269.140625 233.410156 276.578125 C 219.117188 284.015625 203.65625 287.808594 187.03125 287.808594 C 170.40625 287.808594 154.945312 284.015625 140.652344 276.285156 C 126.359375 268.558594 114.402344 257.035156 104.921875 241.867188 C 95.441406 226.699219 90.628906 207.742188 90.628906 184.988281 C 90.628906 167.195312 93.839844 151.59375 100.109375 138.027344 C 106.527344 124.464844 114.984375 113.089844 125.632812 104.339844 C 136.277344 95.441406 148.675781 89.316406 162.820312 85.964844 C 176.96875 82.609375 191.84375 82.464844 207.742188 85.671875 C 214.59375 77.503906 222.910156 71.085938 232.679688 66.273438 C 242.449219 61.023438 252.953125 57.816406 264.328125 56.355469 C 275.703125 54.753906 287.078125 55.042969 298.453125 57.085938 C 309.828125 59.128906 320.476562 63.066406 330.539062 69.046875 C 312.308594 47.167969 291.308594 30.25 267.097656 18.292969 C 243.035156 6.042969 216.636719 0.0625 188.050781 0.0625 Z M 188.050781 0.0625 " fill-opacity="1" fill-rule="nonzero"/></g></g></g></g></svg>