<svg xmlns="http://www.w3.org/2000/svg" xmlns:xlink="http://www.w3.org/1999/xlink" width="1024" zoomAndPan="magnify" viewBox="0 0 768 767.999994" height="1024" preserveAspectRatio="xMidYMid meet" version="1.0"><defs><linearGradient id="olocusGradient" x1="0%" y1="0%" x2="100%" y2="100%"><stop offset="0%" style="stop-color:#4caf50;stop-opacity:1" /><stop offset="100%" style="stop-color:#009688;stop-opacity:1" /></linearGradient><clipPath id="249739af19"><path d="M 82.050781 84.316406 L 683 84.316406 L 683 681 L 82.050781 681 Z M 82.050781 84.316406 " clip-rule="nonzero"/></clipPath><clipPath id="6f2790738a"><path d="M 1 0.316406 L 600 0.316406 L 600 596.878906 L 1 596.878906 Z M 1 0.316406 " clip-rule="nonzero"/></clipPath><clipPath id="7d1bfea572"><rect x="0" width="601" y="0" height="597"/></clipPath></defs><g clip-path="url(#249739af19)"><g transform="matrix(1, 0, 0, 1, 82, 84)"><g clip-path="url(#7d1bfea572)"><g clip-path="url(#6f2790738a)"><path fill="url(#olocusGradient)" d="M 303.289062 0.316406 C 245.511719 0.316406 194.078125 14.171875 148.984375 42.121094 C 103.890625 69.835938 68.660156 105.300781 43.0625 148.515625 C 17.460938 191.726562 3.839844 239.640625 1.960938 292.25 C 0.0820312 344.859375 13.46875 396.527344 42.121094 447.023438 C 66.3125 488.828125 97.785156 521.945312 136.535156 546.839844 C 175.289062 571.734375 216.625 587.234375 260.542969 593.578125 C 304.460938 599.683594 348.617188 596.160156 392.769531 582.539062 C 436.925781 568.917969 476.851562 544.726562 511.847656 509.496094 C 551.300781 469.335938 577.605469 422.832031 590.757812 370.222656 C 603.910156 317.613281 602.738281 264.769531 587.472656 212.160156 C 580.894531 191.023438 570.089844 173.410156 555.058594 159.550781 C 540.027344 145.695312 523.117188 135.363281 504.09375 128.785156 C 485.070312 122.210938 465.34375 119.15625 444.910156 120.09375 C 424.476562 120.800781 405.453125 125.027344 387.839844 132.777344 C 370.222656 140.527344 355.429688 151.332031 343.449219 165.660156 C 331.472656 179.984375 324.191406 197.363281 322.078125 217.796875 C 333.117188 209.8125 346.269531 205.585938 361.535156 205.117188 C 376.800781 204.644531 391.597656 207.933594 405.921875 214.980469 C 420.25 222.027344 432.226562 232.59375 442.09375 246.921875 C 451.957031 261.246094 456.886719 278.863281 456.886719 300.234375 C 456.886719 336.871094 449.136719 367.171875 433.871094 391.359375 C 418.605469 415.550781 399.347656 433.636719 376.332031 445.613281 C 353.3125 457.59375 328.417969 463.699219 301.644531 463.699219 C 274.871094 463.699219 249.976562 457.59375 226.957031 445.144531 C 203.941406 432.695312 184.683594 414.140625 169.417969 389.71875 C 154.152344 365.292969 146.402344 334.757812 146.402344 298.121094 C 146.402344 269.46875 151.566406 244.335938 161.667969 222.496094 C 172 200.652344 185.621094 182.332031 202.769531 168.242188 C 219.914062 153.914062 239.875 144.050781 262.65625 138.648438 C 285.4375 133.246094 309.394531 133.011719 334.996094 138.179688 C 346.035156 125.027344 359.421875 114.695312 375.15625 106.941406 C 390.890625 98.488281 407.800781 93.320312 426.121094 90.972656 C 444.441406 88.390625 462.757812 88.859375 481.078125 92.148438 C 499.398438 95.433594 516.542969 101.777344 532.75 111.40625 C 503.390625 76.175781 469.570312 48.933594 430.582031 29.671875 C 391.832031 9.945312 349.320312 0.316406 303.289062 0.316406 Z M 303.289062 0.316406 " fill-opacity="1" fill-rule="nonzero"/></g></g></g></g></svg>