<svg xmlns="http://www.w3.org/2000/svg" xmlns:xlink="http://www.w3.org/1999/xlink" width="1920" zoomAndPan="magnify" viewBox="0 0 1440 359.999987" height="480" preserveAspectRatio="xMidYMid meet" version="1.0"><defs><g/><linearGradient id="olocusGradient" x1="0%" y1="0%" x2="100%" y2="100%"><stop offset="0%" style="stop-color:#4caf50;stop-opacity:1" /><stop offset="100%" style="stop-color:#009688;stop-opacity:1" /></linearGradient><clipPath id="37602baf1a"><path d="M 37 39.117188 L 321.308594 39.117188 L 321.308594 322 L 37 322 Z M 37 39.117188 " clip-rule="nonzero"/></clipPath><clipPath id="ab26ac57d1"><rect x="0" width="1037" y="0" height="360"/></clipPath></defs><g clip-path="url(#37602baf1a)"><path fill="url(#olocusGradient)" d="M 180.433594 39.117188 C 153.027344 39.117188 128.625 45.691406 107.230469 58.953125 C 85.839844 72.097656 69.125 88.921875 56.980469 109.425781 C 44.832031 129.925781 38.371094 152.65625 37.480469 177.617188 C 36.589844 202.574219 42.9375 227.089844 56.53125 251.042969 C 68.011719 270.878906 82.941406 286.585938 101.324219 298.398438 C 119.710938 310.210938 139.320312 317.5625 160.15625 320.570312 C 180.992188 323.46875 201.941406 321.796875 222.886719 315.335938 C 243.835938 308.871094 262.777344 297.398438 279.378906 280.683594 C 298.101562 261.628906 310.578125 239.566406 316.816406 214.609375 C 323.058594 189.648438 322.5 164.582031 315.257812 139.621094 C 312.136719 129.589844 307.011719 121.234375 299.882812 114.660156 C 292.75 108.089844 284.726562 103.1875 275.703125 100.0625 C 266.675781 96.945312 257.316406 95.5 247.625 95.941406 C 237.929688 96.277344 228.902344 98.28125 220.546875 101.960938 C 212.191406 105.636719 205.171875 110.761719 199.488281 117.558594 C 193.808594 124.355469 190.351562 132.601562 189.347656 142.296875 C 194.585938 138.507812 200.828125 136.5 208.070312 136.277344 C 215.308594 136.054688 222.328125 137.617188 229.128906 140.960938 C 235.921875 144.300781 241.605469 149.316406 246.289062 156.109375 C 250.96875 162.910156 253.308594 171.265625 253.308594 181.402344 C 253.308594 198.789062 249.628906 213.160156 242.386719 224.636719 C 235.144531 236.113281 226.007812 244.691406 215.089844 250.375 C 204.167969 256.058594 192.355469 258.957031 179.65625 258.957031 C 166.953125 258.957031 155.140625 256.058594 144.222656 250.152344 C 133.300781 244.25 124.167969 235.445312 116.925781 223.855469 C 109.679688 212.269531 106.003906 197.785156 106.003906 180.402344 C 106.003906 166.808594 108.457031 154.886719 113.246094 144.523438 C 118.152344 134.160156 124.613281 125.46875 132.746094 118.785156 C 140.878906 111.988281 150.351562 107.308594 161.160156 104.746094 C 171.96875 102.183594 183.332031 102.074219 195.480469 104.523438 C 200.714844 98.28125 207.066406 93.378906 214.53125 89.703125 C 221.996094 85.691406 230.019531 83.242188 238.710938 82.125 C 247.402344 80.902344 256.089844 81.121094 264.78125 82.683594 C 273.472656 84.246094 281.609375 87.253906 289.296875 91.820312 C 275.367188 75.105469 259.324219 62.179688 240.828125 53.046875 C 222.441406 43.6875 202.273438 39.117188 180.433594 39.117188 Z M 180.433594 39.117188 " fill-opacity="1" fill-rule="nonzero"/></g><g transform="matrix(1, 0, 0, 1, 369, 0)"><g clip-path="url(#ab26ac57d1)"><g fill="#2c2c2c" fill-opacity="1"><g transform="translate(0.419837, 308.120188)"><g><path d="M 111.90625 4.109375 C 94.113281 4.109375 77.859375 -0.109375 63.140625 -8.546875 C 48.421875 -16.992188 36.726562 -28.515625 28.0625 -43.109375 C 19.394531 -57.710938 15.0625 -74.253906 15.0625 -92.734375 C 15.0625 -111.441406 19.394531 -128.039062 28.0625 -142.53125 C 36.726562 -157.019531 48.363281 -168.425781 62.96875 -176.75 C 77.570312 -185.082031 93.882812 -189.25 111.90625 -189.25 C 130.15625 -189.25 146.523438 -185.082031 161.015625 -176.75 C 175.503906 -168.425781 187.023438 -157.019531 195.578125 -142.53125 C 204.128906 -128.039062 208.40625 -111.441406 208.40625 -92.734375 C 208.40625 -74.023438 204.070312 -57.367188 195.40625 -42.765625 C 186.738281 -28.171875 175.101562 -16.707031 160.5 -8.375 C 145.894531 -0.0507812 129.695312 4.109375 111.90625 4.109375 Z M 111.90625 -31.828125 C 122.851562 -31.828125 132.546875 -34.445312 140.984375 -39.6875 C 149.429688 -44.9375 156.109375 -52.179688 161.015625 -61.421875 C 165.921875 -70.660156 168.375 -81.097656 168.375 -92.734375 C 168.375 -104.367188 165.921875 -114.75 161.015625 -123.875 C 156.109375 -133.007812 149.429688 -140.195312 140.984375 -145.4375 C 132.546875 -150.6875 122.851562 -153.3125 111.90625 -153.3125 C 101.1875 -153.3125 91.546875 -150.6875 82.984375 -145.4375 C 74.429688 -140.195312 67.703125 -133.007812 62.796875 -123.875 C 57.890625 -114.75 55.4375 -104.367188 55.4375 -92.734375 C 55.4375 -81.097656 57.890625 -70.660156 62.796875 -61.421875 C 67.703125 -52.179688 74.429688 -44.9375 82.984375 -39.6875 C 91.546875 -34.445312 101.1875 -31.828125 111.90625 -31.828125 Z M 111.90625 -31.828125 "/></g></g></g><g fill="#2c2c2c" fill-opacity="1"><g transform="translate(210.880891, 308.120188)"><g><path d="M 22.59375 0 L 22.59375 -259.0625 L 61.25 -259.0625 L 61.25 0 Z M 22.59375 0 "/></g></g></g><g fill="#2c2c2c" fill-opacity="1"><g transform="translate(281.718906, 308.120188)"><g><path d="M 111.90625 4.109375 C 94.113281 4.109375 77.859375 -0.109375 63.140625 -8.546875 C 48.421875 -16.992188 36.726562 -28.515625 28.0625 -43.109375 C 19.394531 -57.710938 15.0625 -74.253906 15.0625 -92.734375 C 15.0625 -111.441406 19.394531 -128.039062 28.0625 -142.53125 C 36.726562 -157.019531 48.363281 -168.425781 62.96875 -176.75 C 77.570312 -185.082031 93.882812 -189.25 111.90625 -189.25 C 130.15625 -189.25 146.523438 -185.082031 161.015625 -176.75 C 175.503906 -168.425781 187.023438 -157.019531 195.578125 -142.53125 C 204.128906 -128.039062 208.40625 -111.441406 208.40625 -92.734375 C 208.40625 -74.023438 204.070312 -57.367188 195.40625 -42.765625 C 186.738281 -28.171875 175.101562 -16.707031 160.5 -8.375 C 145.894531 -0.0507812 129.695312 4.109375 111.90625 4.109375 Z M 111.90625 -31.828125 C 122.851562 -31.828125 132.546875 -34.445312 140.984375 -39.6875 C 149.429688 -44.9375 156.109375 -52.179688 161.015625 -61.421875 C 165.921875 -70.660156 168.375 -81.097656 168.375 -92.734375 C 168.375 -104.367188 165.921875 -114.75 161.015625 -123.875 C 156.109375 -133.007812 149.429688 -140.195312 140.984375 -145.4375 C 132.546875 -150.6875 122.851562 -153.3125 111.90625 -153.3125 C 101.1875 -153.3125 91.546875 -150.6875 82.984375 -145.4375 C 74.429688 -140.195312 67.703125 -133.007812 62.796875 -123.875 C 57.890625 -114.75 55.4375 -104.367188 55.4375 -92.734375 C 55.4375 -81.097656 57.890625 -70.660156 62.796875 -61.421875 C 67.703125 -52.179688 74.429688 -44.9375 82.984375 -39.6875 C 91.546875 -34.445312 101.1875 -31.828125 111.90625 -31.828125 Z M 111.90625 -31.828125 "/></g></g></g><g fill="#2c2c2c" fill-opacity="1"><g transform="translate(492.179937, 308.120188)"><g><path d="M 110.53125 4.109375 C 92.050781 4.109375 75.679688 -0.164062 61.421875 -8.71875 C 47.171875 -17.28125 35.878906 -28.859375 27.546875 -43.453125 C 19.222656 -58.054688 15.0625 -74.597656 15.0625 -93.078125 C 15.0625 -111.335938 19.164062 -127.765625 27.375 -142.359375 C 35.59375 -156.960938 46.882812 -168.425781 61.25 -176.75 C 75.625 -185.082031 92.050781 -189.25 110.53125 -189.25 C 123.082031 -189.25 134.832031 -187.023438 145.78125 -182.578125 C 156.738281 -178.128906 166.265625 -172.023438 174.359375 -164.265625 C 182.460938 -156.503906 188.453125 -147.492188 192.328125 -137.234375 L 158.453125 -121.484375 C 154.566406 -131.066406 148.347656 -138.765625 139.796875 -144.578125 C 131.242188 -150.398438 121.488281 -153.3125 110.53125 -153.3125 C 100.039062 -153.3125 90.628906 -150.742188 82.296875 -145.609375 C 73.972656 -140.484375 67.414062 -133.296875 62.625 -124.046875 C 57.832031 -114.804688 55.4375 -104.367188 55.4375 -92.734375 C 55.4375 -81.097656 57.832031 -70.660156 62.625 -61.421875 C 67.414062 -52.179688 73.972656 -44.9375 82.296875 -39.6875 C 90.628906 -34.445312 100.039062 -31.828125 110.53125 -31.828125 C 121.71875 -31.828125 131.472656 -34.734375 139.796875 -40.546875 C 148.117188 -46.367188 154.335938 -54.1875 158.453125 -64 L 192.328125 -47.90625 C 188.671875 -38.09375 182.789062 -29.25 174.6875 -21.375 C 166.59375 -13.507812 157.070312 -7.296875 146.125 -2.734375 C 135.175781 1.828125 123.3125 4.109375 110.53125 4.109375 Z M 110.53125 4.109375 "/></g></g></g><g fill="#2c2c2c" fill-opacity="1"><g transform="translate(686.556994, 308.120188)"><g><path d="M 88.640625 4.109375 C 74.722656 4.109375 62.515625 0.972656 52.015625 -5.296875 C 41.523438 -11.578125 33.367188 -20.363281 27.546875 -31.65625 C 21.734375 -42.945312 18.828125 -56.007812 18.828125 -70.84375 L 18.828125 -185.140625 L 57.5 -185.140625 L 57.5 -74.265625 C 57.5 -65.816406 59.207031 -58.398438 62.625 -52.015625 C 66.050781 -45.628906 70.84375 -40.664062 77 -37.125 C 83.15625 -33.59375 90.226562 -31.828125 98.21875 -31.828125 C 106.425781 -31.828125 113.609375 -33.648438 119.765625 -37.296875 C 125.929688 -40.953125 130.78125 -46.085938 134.3125 -52.703125 C 137.851562 -59.316406 139.625 -67.070312 139.625 -75.96875 L 139.625 -185.140625 L 177.953125 -185.140625 L 177.953125 0 L 141.34375 0 L 141.34375 -36.28125 L 145.4375 -31.484375 C 141.101562 -20.078125 133.914062 -11.289062 123.875 -5.125 C 113.84375 1.03125 102.097656 4.109375 88.640625 4.109375 Z M 88.640625 4.109375 "/></g></g></g><g fill="#2c2c2c" fill-opacity="1"><g transform="translate(874.089695, 308.120188)"><g><path d="M 91.03125 4.109375 C 72.09375 4.109375 55.492188 -0.566406 41.234375 -9.921875 C 26.972656 -19.273438 16.992188 -31.820312 11.296875 -47.5625 L 41.0625 -61.59375 C 46.082031 -51.101562 52.984375 -42.773438 61.765625 -36.609375 C 70.554688 -30.453125 80.3125 -27.375 91.03125 -27.375 C 100.15625 -27.375 107.566406 -29.425781 113.265625 -33.53125 C 118.972656 -37.644531 121.828125 -43.238281 121.828125 -50.3125 C 121.828125 -54.875 120.570312 -58.578125 118.0625 -61.421875 C 115.550781 -64.273438 112.410156 -66.613281 108.640625 -68.4375 C 104.878906 -70.269531 101.0625 -71.640625 97.1875 -72.546875 L 68.09375 -80.765625 C 52.125 -85.328125 40.203125 -92.226562 32.328125 -101.46875 C 24.460938 -110.707031 20.53125 -121.488281 20.53125 -133.8125 C 20.53125 -144.988281 23.378906 -154.738281 29.078125 -163.0625 C 34.785156 -171.394531 42.660156 -177.84375 52.703125 -182.40625 C 62.742188 -186.96875 74.035156 -189.25 86.578125 -189.25 C 103.460938 -189.25 118.519531 -185.082031 131.75 -176.75 C 144.988281 -168.425781 154.34375 -156.847656 159.8125 -142.015625 L 130.046875 -127.984375 C 126.390625 -136.890625 120.625 -143.960938 112.75 -149.203125 C 104.882812 -154.453125 96.046875 -157.078125 86.234375 -157.078125 C 77.796875 -157.078125 71.066406 -155.078125 66.046875 -151.078125 C 61.023438 -147.085938 58.515625 -141.898438 58.515625 -135.515625 C 58.515625 -131.179688 59.65625 -127.585938 61.9375 -124.734375 C 64.21875 -121.890625 67.179688 -119.609375 70.828125 -117.890625 C 74.484375 -116.179688 78.25 -114.753906 82.125 -113.609375 L 112.25 -104.71875 C 127.53125 -100.382812 139.273438 -93.597656 147.484375 -84.359375 C 155.703125 -75.117188 159.8125 -64.109375 159.8125 -51.328125 C 159.8125 -40.378906 156.898438 -30.738281 151.078125 -22.40625 C 145.265625 -14.082031 137.222656 -7.582031 126.953125 -2.90625 C 116.691406 1.769531 104.71875 4.109375 91.03125 4.109375 Z M 91.03125 4.109375 "/></g></g></g></g></g></svg>